<?xml version="1.0" encoding="utf-8"?>
<!-- Generator: Adobe Illustrator 18.0.0, SVG Export Plug-In . SVG Version: 6.00 Build 0)  -->
<!DOCTYPE svg PUBLIC "-//W3C//DTD SVG 1.1//EN" "http://www.w3.org/Graphics/SVG/1.1/DTD/svg11.dtd">
<svg version="1.1" id="圖層_1" xmlns="http://www.w3.org/2000/svg" xmlns:xlink="http://www.w3.org/1999/xlink" x="0px" y="0px"
	 viewBox="0 0 242.7 46.2" enable-background="new 0 0 242.7 46.2" xml:space="preserve">
<g>
	<g>
		<g>
			<path fill="#3E3A39" d="M0,1.2h5.6v10.6l9.9-10.6h7.4L11.5,13.1l12.3,13.7H16L5.6,14.7v12.1H0V1.2z"/>
			<path fill="#3E3A39" d="M52.6,26.8l-18,0v-5.2l12.4,0v-5.2l-11.1,0v-5.2H47V6.4H35.3V1.2h17.3V26.8z"/>
			<path fill="#3E3A39" d="M65.8,1.2h7.6L84.3,19h0.1V1.2H90v25.5h-7.4L71.5,8.6h-0.1v18.2h-5.6V1.2z"/>
		</g>
		<path fill="#3E3A39" d="M123.7,1.2h16v3.2h-12.6v8h11.7v3.2h-11.7v11h-3.5V1.2z"/>
		<path fill="#3E3A39" d="M153,1.2h16.5v3.2h-13v7.6h12.1v3.2h-12.1v8.2h13.7v3.2H153V1.2z"/>
		<path fill="#3E3A39" d="M183.7,1.2h4.5l14.1,21h0.1v-21h3.5v25.5h-4.4l-14.2-21h-0.1v21h-3.5V1.2z"/>
		<path fill="#3E3A39" d="M228.5,12.5v3.2h-5.7v7.1c0.8,0.4,1.7,0.8,2.8,1c1.1,0.2,2.3,0.3,3.5,0.3c1.4,0,2.7-0.3,3.9-0.8
			c1.2-0.5,2.2-1.2,3.1-2.1c0.9-0.9,1.6-2,2.1-3.2c0.5-1.2,0.8-2.6,0.8-4c0-1.4-0.2-2.7-0.7-3.9c-0.5-1.2-1.1-2.3-1.9-3.2
			c-0.8-0.9-1.8-1.6-3-2.2c-1.2-0.5-2.5-0.8-4-0.8c-1.3,0-2.5,0.2-3.7,0.6s-2.3,1.1-3.4,2.1l-2.5-2.6c1-1,2.3-1.8,3.7-2.4
			c1.5-0.6,3.4-0.9,5.8-0.9c1.9,0,3.7,0.3,5.4,1c1.6,0.7,3,1.6,4.2,2.8c1.2,1.2,2.1,2.6,2.7,4.3c0.7,1.6,1,3.4,1,5.3
			c0,1.8-0.3,3.5-0.9,5.1c-0.6,1.6-1.5,3-2.7,4.3c-1.2,1.2-2.6,2.2-4.3,2.9s-3.6,1.1-5.8,1.1c-0.8,0-1.6,0-2.5-0.1
			c-0.9-0.1-1.7-0.2-2.6-0.5c-0.9-0.2-1.7-0.5-2.5-0.7c-0.8-0.3-1.5-0.6-2.1-1V12.5H228.5z"/>
		<rect x="105.7" y="0" fill="#595757" width="2" height="28"/>
	</g>
	<g>
		<g>
			<path fill="#231815" d="M81.8,37.4H84c0.3,0,0.5,0,0.8,0.1c0.3,0.1,0.6,0.2,0.8,0.3c0.2,0.2,0.4,0.4,0.6,0.6
				c0.2,0.3,0.2,0.6,0.2,1c0,0.3-0.1,0.6-0.2,0.9c-0.1,0.3-0.3,0.5-0.5,0.6c-0.2,0.2-0.5,0.3-0.7,0.4s-0.6,0.1-0.9,0.1h-1.7V45h-0.7
				V37.4z M82.5,40.7h1.6c0.2,0,0.4,0,0.6-0.1s0.4-0.1,0.5-0.2c0.2-0.1,0.3-0.2,0.4-0.4c0.1-0.2,0.1-0.4,0.1-0.6
				c0-0.2,0-0.5-0.1-0.6c-0.1-0.2-0.2-0.3-0.4-0.4c-0.2-0.1-0.3-0.2-0.5-0.2C84.5,38,84.3,38,84.1,38h-1.6V40.7z"/>
			<path fill="#231815" d="M90.1,41.2c0-0.6,0.1-1.1,0.3-1.6s0.5-0.9,0.8-1.3c0.3-0.4,0.8-0.6,1.2-0.8c0.5-0.2,1-0.3,1.6-0.3
				c0.6,0,1.1,0.1,1.6,0.3c0.5,0.2,0.9,0.5,1.2,0.8c0.3,0.4,0.6,0.8,0.8,1.3s0.3,1,0.3,1.6c0,0.6-0.1,1.1-0.3,1.6s-0.5,0.9-0.8,1.3
				c-0.3,0.4-0.8,0.6-1.2,0.8s-1,0.3-1.6,0.3c-0.6,0-1.1-0.1-1.6-0.3c-0.5-0.2-0.9-0.5-1.2-0.8s-0.6-0.8-0.8-1.3
				S90.1,41.8,90.1,41.2z M90.8,41.2c0,0.5,0.1,0.9,0.2,1.3s0.4,0.8,0.6,1.1c0.3,0.3,0.6,0.5,1,0.7s0.8,0.3,1.3,0.3
				c0.5,0,0.9-0.1,1.3-0.3s0.7-0.4,1-0.7s0.5-0.7,0.6-1.1s0.2-0.9,0.2-1.3c0-0.5-0.1-0.9-0.2-1.3s-0.4-0.8-0.6-1.1s-0.6-0.5-1-0.7
				c-0.4-0.2-0.8-0.3-1.3-0.3c-0.5,0-0.9,0.1-1.3,0.3c-0.4,0.2-0.7,0.4-1,0.7c-0.3,0.3-0.5,0.7-0.6,1.1S90.8,40.7,90.8,41.2z"/>
			<path fill="#231815" d="M102.1,37.4h2c0.1,0,0.2,0,0.4,0c0.2,0,0.4,0,0.6,0.1c0.2,0,0.4,0.1,0.6,0.2c0.2,0.1,0.4,0.2,0.6,0.3
				c0.2,0.2,0.3,0.3,0.4,0.6c0.1,0.2,0.2,0.5,0.2,0.8c0,0.4-0.1,0.7-0.2,0.9c-0.1,0.2-0.3,0.4-0.5,0.6s-0.4,0.3-0.6,0.3
				c-0.2,0.1-0.5,0.1-0.7,0.2l2.2,3.7h-0.8l-2.1-3.6h-1.3V45h-0.7V37.4z M102.9,40.7h1.5c0.4,0,0.7,0,0.9-0.1
				c0.2-0.1,0.4-0.2,0.5-0.3c0.1-0.1,0.2-0.3,0.3-0.4c0-0.2,0.1-0.3,0.1-0.4s0-0.3-0.1-0.4c0-0.2-0.1-0.3-0.3-0.4
				c-0.1-0.1-0.3-0.3-0.5-0.3c-0.2-0.1-0.5-0.1-0.9-0.1h-1.5V40.7z"/>
			<path fill="#231815" d="M112.9,38h-2.6v-0.6h5.9V38h-2.6v7h-0.7V38z"/>
			<path fill="#231815" d="M120,37.4h4.6V38h-3.9v2.7h3.6v0.6h-3.6V45H120V37.4z"/>
			<path fill="#231815" d="M128.1,41.2c0-0.6,0.1-1.1,0.3-1.6s0.5-0.9,0.8-1.3c0.3-0.4,0.8-0.6,1.2-0.8c0.5-0.2,1-0.3,1.6-0.3
				c0.6,0,1.1,0.1,1.6,0.3c0.5,0.2,0.9,0.5,1.2,0.8c0.3,0.4,0.6,0.8,0.8,1.3s0.3,1,0.3,1.6c0,0.6-0.1,1.1-0.3,1.6s-0.5,0.9-0.8,1.3
				c-0.3,0.4-0.8,0.6-1.2,0.8s-1,0.3-1.6,0.3c-0.6,0-1.1-0.1-1.6-0.3c-0.5-0.2-0.9-0.5-1.2-0.8s-0.6-0.8-0.8-1.3
				S128.1,41.8,128.1,41.2z M128.8,41.2c0,0.5,0.1,0.9,0.2,1.3s0.4,0.8,0.6,1.1c0.3,0.3,0.6,0.5,1,0.7s0.8,0.3,1.3,0.3
				c0.5,0,0.9-0.1,1.3-0.3s0.7-0.4,1-0.7s0.5-0.7,0.6-1.1s0.2-0.9,0.2-1.3c0-0.5-0.1-0.9-0.2-1.3s-0.4-0.8-0.6-1.1s-0.6-0.5-1-0.7
				c-0.4-0.2-0.8-0.3-1.3-0.3c-0.5,0-0.9,0.1-1.3,0.3c-0.4,0.2-0.7,0.4-1,0.7c-0.3,0.3-0.5,0.7-0.6,1.1S128.8,40.7,128.8,41.2z"/>
			<path fill="#231815" d="M140.2,37.4h0.7v7h3.6V45h-4.3V37.4z"/>
			<path fill="#231815" d="M148.2,37.4h0.7V45h-0.7V37.4z"/>
			<path fill="#231815" d="M153.1,41.2c0-0.6,0.1-1.1,0.3-1.6s0.5-0.9,0.8-1.3c0.3-0.4,0.8-0.6,1.2-0.8c0.5-0.2,1-0.3,1.6-0.3
				c0.6,0,1.1,0.1,1.6,0.3c0.5,0.2,0.9,0.5,1.2,0.8c0.3,0.4,0.6,0.8,0.8,1.3s0.3,1,0.3,1.6c0,0.6-0.1,1.1-0.3,1.6s-0.5,0.9-0.8,1.3
				c-0.3,0.4-0.8,0.6-1.2,0.8s-1,0.3-1.6,0.3c-0.6,0-1.1-0.1-1.6-0.3c-0.5-0.2-0.9-0.5-1.2-0.8s-0.6-0.8-0.8-1.3
				S153.1,41.8,153.1,41.2z M153.8,41.2c0,0.5,0.1,0.9,0.2,1.3s0.4,0.8,0.6,1.1c0.3,0.3,0.6,0.5,1,0.7s0.8,0.3,1.3,0.3
				c0.5,0,0.9-0.1,1.3-0.3s0.7-0.4,1-0.7s0.5-0.7,0.6-1.1s0.2-0.9,0.2-1.3c0-0.5-0.1-0.9-0.2-1.3s-0.4-0.8-0.6-1.1s-0.6-0.5-1-0.7
				c-0.4-0.2-0.8-0.3-1.3-0.3c-0.5,0-0.9,0.1-1.3,0.3c-0.4,0.2-0.7,0.4-1,0.7c-0.3,0.3-0.5,0.7-0.6,1.1S153.8,40.7,153.8,41.2z"/>
		</g>
		<rect x="0" y="40.7" fill="#231815" width="74.9" height="1"/>
		<rect x="167.1" y="40.7" fill="#231815" width="75.6" height="1"/>
	</g>
</g>
</svg>
